solid OpenSCAD_Model
  facet normal -1 0 0
    outer loop
      vertex -16 58 0
      vertex -16 56 3
      vertex -16 58 8.5
    endloop
  endfacet
  facet normal -1 0 0
    outer loop
      vertex -16 58 0
      vertex -16 -56 3
      vertex -16 56 3
    endloop
  endfacet
  facet normal -1 0 0
    outer loop
      vertex -16 -58 8.5
      vertex -16 -56 3
      vertex -16 -58 0
    endloop
  endfacet
  facet normal -1 0 0
    outer loop
      vertex -16 -58 0
      vertex -16 -56 3
      vertex -16 58 0
    endloop
  endfacet
  facet normal -1 0 0
    outer loop
      vertex -16 56 6.5
      vertex -16 58 8.5
      vertex -16 56 3
    endloop
  endfacet
  facet normal -1 0 0
    outer loop
      vertex -16 54 8.5
      vertex -16 56 6.5
      vertex -16 54 6.5
    endloop
  endfacet
  facet normal -1 0 0
    outer loop
      vertex -16 56 6.5
      vertex -16 54 8.5
      vertex -16 58 8.5
    endloop
  endfacet
  facet normal -1 0 0
    outer loop
      vertex -16 -56 6.5
      vertex -16 -54 8.5
      vertex -16 -54 6.5
    endloop
  endfacet
  facet normal -1 0 0
    outer loop
      vertex -16 -56 6.5
      vertex -16 -58 8.5
      vertex -16 -54 8.5
    endloop
  endfacet
  facet normal -1 0 0
    outer loop
      vertex -16 -56 3
      vertex -16 -58 8.5
      vertex -16 -56 6.5
    endloop
  endfacet
  facet normal -0 0 1
    outer loop
      vertex -16 56 3
      vertex 16 -56 3
      vertex 16 56 3
    endloop
  endfacet
  facet normal 0 0 1
    outer loop
      vertex 16 -56 3
      vertex -16 56 3
      vertex -16 -56 3
    endloop
  endfacet
  facet normal 1 0 0
    outer loop
      vertex 16 -54 8.5
      vertex 16 -56 6.5
      vertex 16 -54 6.5
    endloop
  endfacet
  facet normal 1 0 0
    outer loop
      vertex 16 -56 6.5
      vertex 16 -58 8.5
      vertex 16 -56 3
    endloop
  endfacet
  facet normal 1 -0 0
    outer loop
      vertex 16 -58 8.5
      vertex 16 -56 6.5
      vertex 16 -54 8.5
    endloop
  endfacet
  facet normal 1 0 0
    outer loop
      vertex 16 56 3
      vertex 16 58 8.5
      vertex 16 56 6.5
    endloop
  endfacet
  facet normal 1 -0 0
    outer loop
      vertex 16 54 8.5
      vertex 16 56 6.5
      vertex 16 58 8.5
    endloop
  endfacet
  facet normal 1 0 0
    outer loop
      vertex 16 56 6.5
      vertex 16 54 8.5
      vertex 16 54 6.5
    endloop
  endfacet
  facet normal 1 0 0
    outer loop
      vertex 16 58 8.5
      vertex 16 56 3
      vertex 16 58 0
    endloop
  endfacet
  facet normal 1 -0 0
    outer loop
      vertex 16 -56 3
      vertex 16 58 0
      vertex 16 56 3
    endloop
  endfacet
  facet normal 1 0 0
    outer loop
      vertex 16 -56 3
      vertex 16 -58 0
      vertex 16 58 0
    endloop
  endfacet
  facet normal 1 0 0
    outer loop
      vertex 16 -58 0
      vertex 16 -56 3
      vertex 16 -58 8.5
    endloop
  endfacet
  facet normal 0 -1 0
    outer loop
      vertex -16 56 3
      vertex 16 56 6.5
      vertex -16 56 6.5
    endloop
  endfacet
  facet normal 0 -1 -0
    outer loop
      vertex 16 56 6.5
      vertex -16 56 3
      vertex 16 56 3
    endloop
  endfacet
  facet normal 0 0 -1
    outer loop
      vertex -16 -58 0
      vertex 16 58 0
      vertex 16 -58 0
    endloop
  endfacet
  facet normal -0 0 -1
    outer loop
      vertex 16 58 0
      vertex -16 -58 0
      vertex -16 58 0
    endloop
  endfacet
  facet normal 0 1 -0
    outer loop
      vertex 16 -56 3
      vertex -16 -56 6.5
      vertex 16 -56 6.5
    endloop
  endfacet
  facet normal 0 1 0
    outer loop
      vertex -16 -56 6.5
      vertex 16 -56 3
      vertex -16 -56 3
    endloop
  endfacet
  facet normal -0 0 1
    outer loop
      vertex -16 -54 8.5
      vertex 16 -58 8.5
      vertex 16 -54 8.5
    endloop
  endfacet
  facet normal 0 0 1
    outer loop
      vertex 16 -58 8.5
      vertex -16 -54 8.5
      vertex -16 -58 8.5
    endloop
  endfacet
  facet normal 0 -1 0
    outer loop
      vertex -16 -58 0
      vertex 16 -58 8.5
      vertex -16 -58 8.5
    endloop
  endfacet
  facet normal 0 -1 -0
    outer loop
      vertex 16 -58 8.5
      vertex -16 -58 0
      vertex 16 -58 0
    endloop
  endfacet
  facet normal 0 1 -0
    outer loop
      vertex 16 -54 6.5
      vertex -16 -54 8.5
      vertex 16 -54 8.5
    endloop
  endfacet
  facet normal 0 1 0
    outer loop
      vertex -16 -54 8.5
      vertex 16 -54 6.5
      vertex -16 -54 6.5
    endloop
  endfacet
  facet normal 0 0 -1
    outer loop
      vertex -16 -56 6.5
      vertex 16 -54 6.5
      vertex 16 -56 6.5
    endloop
  endfacet
  facet normal -0 0 -1
    outer loop
      vertex 16 -54 6.5
      vertex -16 -56 6.5
      vertex -16 -54 6.5
    endloop
  endfacet
  facet normal -0 0 1
    outer loop
      vertex -16 58 8.5
      vertex 16 54 8.5
      vertex 16 58 8.5
    endloop
  endfacet
  facet normal 0 0 1
    outer loop
      vertex 16 54 8.5
      vertex -16 58 8.5
      vertex -16 54 8.5
    endloop
  endfacet
  facet normal 0 1 -0
    outer loop
      vertex 16 58 0
      vertex -16 58 8.5
      vertex 16 58 8.5
    endloop
  endfacet
  facet normal 0 1 0
    outer loop
      vertex -16 58 8.5
      vertex 16 58 0
      vertex -16 58 0
    endloop
  endfacet
  facet normal 0 0 -1
    outer loop
      vertex -16 54 6.5
      vertex 16 56 6.5
      vertex 16 54 6.5
    endloop
  endfacet
  facet normal -0 0 -1
    outer loop
      vertex 16 56 6.5
      vertex -16 54 6.5
      vertex -16 56 6.5
    endloop
  endfacet
  facet normal 0 -1 0
    outer loop
      vertex -16 54 6.5
      vertex 16 54 8.5
      vertex -16 54 8.5
    endloop
  endfacet
  facet normal 0 -1 -0
    outer loop
      vertex 16 54 8.5
      vertex -16 54 6.5
      vertex 16 54 6.5
    endloop
  endfacet
endsolid OpenSCAD_Model
